Coordinates
version=1
nRows=17
nColumns=38
inDegrees=yes

Units are S.I. units (second, meters, Newtons, ...)
Angles are in degrees.

endheader
time	pelvis_tilt	pelvis_list	pelvis_rotation	pelvis_tx	pelvis_ty	pelvis_tz	hip_flexion_r	hip_adduction_r	hip_rotation_r	knee_angle_r	ankle_angle_r	subtalar_angle_r	mtp_angle_r	hip_flexion_l	hip_adduction_l	hip_rotation_l	knee_angle_l	ankle_angle_l	subtalar_angle_l	mtp_angle_l	lumbar_extension	lumbar_bending	lumbar_rotation	arm_flex_r	arm_add_r	arm_rot_r	elbow_flex_r	pro_sup_r	wrist_flex_r	wrist_dev_r	arm_flex_l	arm_add_l	arm_rot_l	elbow_flex_l	pro_sup_l	wrist_flex_l	wrist_dev_l
      0.00000000	     -3.70614223	     -1.16420874	     -1.79696495	      0.00926526	      0.83845637	      0.00477829	      4.39019361	      0.18787426	     -2.65236665	     -8.90357708	      4.08361850	      0.00000000	      0.00000000	      3.46295005	     -1.36757902	     -2.09713539	     -6.27156873	      2.97758350	      0.00000000	      0.00000000	      0.29386045	      0.74297970	      2.37381588	      0.00000000	      0.00000000	      0.00000000	     74.63615721	    116.90830700	      0.00000000	      0.00000000	      0.00000000	      0.00000000	      0.00000000	     74.63615721	    116.80430587	      0.00000000	      0.00000000
      0.01000000	     -3.70167601	     -1.17072801	     -1.77676959	      0.00918807	      0.83847725	      0.00475348	      4.35653518	      0.19536792	     -2.64216322	     -8.84578091	      4.08299083	      0.00000000	      0.00000000	      3.46648244	     -1.37305870	     -2.07751977	     -6.27591585	      2.97655142	      0.00000000	      0.00000000	      0.29953051	      0.76253095	      2.42114884	      0.00000000	      0.00000000	      0.00000000	     74.64746000	    116.90825070	      0.00000000	      0.00000000	      0.00000000	      0.00000000	      0.00000000	     74.64746000	    116.79926193	      0.00000000	      0.00000000
      0.02000000	     -3.69678098	     -1.17427668	     -1.77067259	      0.00911521	      0.83848834	      0.00476262	      4.34023407	      0.20049360	     -2.63613915	     -8.81663366	      4.07463932	      0.00000000	      0.00000000	      3.46616104	     -1.37720295	     -2.06860513	     -6.27498884	      2.96971665	      0.00000000	      0.00000000	      0.29834742	      0.77073981	      2.44399338	      0.00000000	      0.00000000	      0.00000000	     74.66200944	    116.90817605	      0.00000000	      0.00000000	      0.00000000	      0.00000000	      0.00000000	     74.66200944	    116.79257817	      0.00000000	      0.00000000
      0.03000000	     -3.69071833	     -1.17579346	     -1.77358609	      0.00904974	      0.83849211	      0.00478987	      4.33473680	      0.20386858	     -2.63318639	     -8.80727278	      4.06207375	      0.00000000	      0.00000000	      3.46275411	     -1.38009282	     -2.06807382	     -6.27127026	      2.96054268	      0.00000000	      0.00000000	      0.29374418	      0.77156285	      2.45140628	      0.00000000	      0.00000000	      0.00000000	     74.67980503	    116.90808304	      0.00000000	      0.00000000	      0.00000000	      0.00000000	      0.00000000	     74.67980503	    116.78425491	      0.00000000	      0.00000000
      0.04000000	     -3.68348679	     -1.17614600	     -1.78074039	      0.00899076	      0.83849047	      0.00482369	      4.33365344	      0.20600084	     -2.63204691	     -8.80807853	      4.04890413	      0.00000000	      0.00000000	      3.45746938	     -1.38199853	     -2.07317371	     -6.26710941	      2.95232081	      0.00000000	      0.00000000	      0.28879846	      0.76899353	      2.45229007	      0.00000000	      0.00000000	      0.00000000	     74.70084593	    116.90797167	      0.00000000	      0.00000000	      0.00000000	      0.00000000	      0.00000000	     74.70084593	    116.77429266	      0.00000000	      0.00000000
      0.05000000	     -3.67584735	     -1.17593996	     -1.78910210	      0.00893334	      0.83848663	      0.00485820	      4.33271021	      0.20720211	     -2.63155378	     -8.81124033	      4.03785178	      0.00000000	      0.00000000	      3.45166740	     -1.38341437	     -2.08131860	     -6.26407914	      2.94717386	      0.00000000	      0.00000000	      0.28520783	      0.76586417	      2.45249833	      0.00000000	      0.00000000	      0.00000000	     74.72513103	    116.90784194	      0.00000000	      0.00000000	      0.00000000	      0.00000000	      0.00000000	     74.72513103	    116.76269211	      0.00000000	      0.00000000
      0.06000000	     -3.66870121	     -1.17550120	     -1.79738251	      0.00887380	      0.83848901	      0.00488873	      4.33017007	      0.20773598	     -2.63074886	     -8.81198675	      4.03034763	      0.00000000	      0.00000000	      3.44649793	     -1.38488341	     -2.09040993	     -6.26290034	      2.94579525	      0.00000000	      0.00000000	      0.28344258	      0.76354684	      2.45413335	      0.00000000	      0.00000000	      0.00000000	     74.75265887	    116.90769385	      0.00000000	      0.00000000	      0.00000000	      0.00000000	      0.00000000	     74.75265887	    116.74945414	      0.00000000	      0.00000000
      0.07000000	     -3.66249473	     -1.17500472	     -1.80529373	      0.00881415	      0.83850431	      0.00491321	      4.32608692	      0.20800483	     -2.62895315	     -8.80869859	      4.02655857	      0.00000000	      0.00000000	      3.44271589	     -1.38668381	     -2.09892106	     -6.26362513	      2.94769703	      0.00000000	      0.00000000	      0.28339182	      0.76228752	      2.45653527	      0.00000000	      0.00000000	      0.00000000	     74.78342773	    116.90752741	      0.00000000	      0.00000000	      0.00000000	      0.00000000	      0.00000000	     74.78342773	    116.73457980	      0.00000000	      0.00000000
      0.08000000	     -3.65719469	     -1.17464452	     -1.81273853	      0.00875873	      0.83852820	      0.00493562	      4.32117452	      0.20849913	     -2.62582690	     -8.80216312	      4.02571690	      0.00000000	      0.00000000	      3.44057182	     -1.38873350	     -2.10584326	     -6.26595189	      2.95169577	      0.00000000	      0.00000000	      0.28480709	      0.76174522	      2.45797121	      0.00000000	      0.00000000	      0.00000000	     74.81743559	    116.90734260	      0.00000000	      0.00000000	      0.00000000	      0.00000000	      0.00000000	     74.81743559	    116.71807034	      0.00000000	      0.00000000
      0.09000000	     -3.65254063	     -1.17464413	     -1.81939777	      0.00871084	      0.83854984	      0.00496099	      4.31610349	      0.20956807	     -2.62141816	     -8.79429940	      4.02661422	      0.00000000	      0.00000000	      3.43977055	     -1.39079439	     -2.11061453	     -6.26949237	      2.95640621	      0.00000000	      0.00000000	      0.28736870	      0.76146010	      2.45705931	      0.00000000	      0.00000000	      0.00000000	     74.85468013	    116.90713944	      0.00000000	      0.00000000	      0.00000000	      0.00000000	      0.00000000	     74.85468013	    116.69992716	      0.00000000	      0.00000000
      0.10000000	     -3.64814349	     -1.17510624	     -1.82486227	      0.00867164	      0.83856063	      0.00498813	      4.31130092	      0.21129530	     -2.61616440	     -8.78691353	      4.02808131	      0.00000000	      0.00000000	      3.43965341	     -1.39271729	     -2.11309566	     -6.27382109	      2.96063069	      0.00000000	      0.00000000	      0.29062568	      0.76113878	      2.45342679	      0.00000000	      0.00000000	      0.00000000	     74.89515875	    116.90691792	      0.00000000	      0.00000000	      0.00000000	      0.00000000	      0.00000000	     74.89515875	    116.68015185	      0.00000000	      0.00000000
      0.11000000	     -3.64357584	     -1.17593634	     -1.82903410	      0.00863787	      0.83855945	      0.00501167	      4.30686083	      0.21351337	     -2.61077752	     -8.78100631	      4.02929432	      0.00000000	      0.00000000	      3.43949838	     -1.39452796	     -2.11355804	     -6.27844620	      2.96359878	      0.00000000	      0.00000000	      0.29404941	      0.76070703	      2.44765004	      0.00000000	      0.00000000	      0.00000000	     74.93886859	    116.90667804	      0.00000000	      0.00000000	      0.00000000	      0.00000000	      0.00000000	     74.93886859	    116.65874616	      0.00000000	      0.00000000
      0.12000000	     -3.63850368	     -1.17691032	     -1.83232096	      0.00860401	      0.83855382	      0.00503044	      4.30253530	      0.21589774	     -2.60599245	     -8.77669705	      4.02984202	      0.00000000	      0.00000000	      3.43872426	     -1.39631851	     -2.11261054	     -6.28290304	      2.96504594	      0.00000000	      0.00000000	      0.29721137	      0.76019974	      2.44083396	      0.00000000	      0.00000000	      0.00000000	     74.98580648	    116.90641980	      0.00000000	      0.00000000	      0.00000000	      0.00000000	      0.00000000	     74.98580648	    116.63571201	      0.00000000	      0.00000000
      0.13000000	     -3.63282163	     -1.17772352	     -1.83543098	      0.00856756	      0.83855359	      0.00504838	      4.29788652	      0.21809478	     -2.60228021	     -8.77353667	      4.02960447	      0.00000000	      0.00000000	      3.43692413	     -1.39812320	     -2.11104180	     -6.28693015	      2.96514958	      0.00000000	      0.00000000	      0.29993682	      0.75965030	      2.43417564	      0.00000000	      0.00000000	      0.00000000	     75.03596902	    116.90614320	      0.00000000	      0.00000000	      0.00000000	      0.00000000	      0.00000000	     75.03596902	    116.61105147	      0.00000000	      0.00000000
      0.14000000	     -3.62663428	     -1.17807641	     -1.83896791	      0.00853068	      0.83856368	      0.00506769	      4.29255813	      0.21984776	     -2.59968496	     -8.77092944	      4.02856862	      0.00000000	      0.00000000	      3.43393022	     -1.39983526	     -2.10963128	     -6.29048579	      2.96436607	      0.00000000	      0.00000000	      0.30230342	      0.75909196	      2.42867152	      0.00000000	      0.00000000	      0.00000000	     75.08935251	    116.90584825	      0.00000000	      0.00000000	      0.00000000	      0.00000000	      0.00000000	     75.08935251	    116.58476678	      0.00000000	      0.00000000
      0.15000000	     -3.62007794	     -1.17792935	     -1.84310332	      0.00849708	      0.83858209	      0.00508676	      4.28654668	      0.22106893	     -2.59786490	     -8.76844564	      4.02670384	      0.00000000	      0.00000000	      3.42994388	     -1.40115143	     -2.10898958	     -6.29356401	      2.96322965	      0.00000000	      0.00000000	      0.30450093	      0.75862717	      2.42497578	      0.00000000	      0.00000000	      0.00000000	     75.14595302	    116.90553493	      0.00000000	      0.00000000	      0.00000000	      0.00000000	      0.00000000	     75.14595302	    116.55686034	      0.00000000	      0.00000000
      0.16000000	     -3.61337377	     -1.17757025	     -1.84751373	      0.00846781	      0.83860183	      0.00510417	      4.28024215	      0.22181815	     -2.59631014	     -8.76596336	      4.02395660	      0.00000000	      0.00000000	      3.42542565	     -1.40176816	     -2.10944577	     -6.29605474	      2.96217340	      0.00000000	      0.00000000	      0.30666227	      0.75843374	      2.42335517	      0.00000000	      0.00000000	      0.00000000	     75.20576634	    116.90520326	      0.00000000	      0.00000000	      0.00000000	      0.00000000	      0.00000000	     75.20576634	    116.52733468	      0.00000000	      0.00000000
